<svg xmlns="http://www.w3.org/2000/svg" version="1.1" width="512px" height="512px" style="shape-rendering:geometricPrecision; text-rendering:geometricPrecision; image-rendering:optimizeQuality; fill-rule:evenodd; clip-rule:evenodd" xmlns:xlink="http://www.w3.org/1999/xlink">
<g><path style="opacity:0.957" fill="#000000" d="M 511.5,196.5 C 511.5,204.5 511.5,212.5 511.5,220.5C 503.854,253.812 483.187,273.479 449.5,279.5C 449.667,308.502 449.5,337.502 449,366.5C 443.898,383.974 432.398,390.474 414.5,386C 343.856,346.175 268.189,321.675 187.5,312.5C 186.5,312.833 185.5,313.167 184.5,313.5C 200.432,356.795 216.265,400.128 232,443.5C 238.339,459.488 234.172,471.655 219.5,480C 216.576,480.988 213.576,481.654 210.5,482C 200.5,482.167 190.5,482.333 180.5,482.5C 168.46,482.6 156.46,482.1 144.5,481C 138.475,479.078 133.641,475.578 130,470.5C 109.773,416.487 89.9398,362.32 70.5,308C 57.3427,301.522 49.676,291.022 47.5,276.5C 35.6178,277.716 24.2844,275.882 13.5,271C 6.64898,265.995 1.98231,259.495 -0.5,251.5C -0.5,222.5 -0.5,193.5 -0.5,164.5C 3.85631,151.98 12.523,144.147 25.5,141C 32.8258,140.5 40.1591,140.334 47.5,140.5C 50.0987,124.397 59.0987,113.564 74.5,108C 194.959,114.633 307.959,88.966 413.5,31C 429.162,25.8884 440.662,30.7217 448,45.5C 449.136,75.7911 449.969,106.124 450.5,136.5C 483.475,143.809 503.808,163.809 511.5,196.5 Z M 421.5,55.5 C 422.833,106.162 423.5,157.162 423.5,208.5C 423.333,259.5 423.167,310.5 423,361.5C 347.145,319.383 265.979,294.05 179.5,285.5C 178.5,233.838 178.167,182.171 178.5,130.5C 265.041,122.956 346.041,97.9562 421.5,55.5 Z M 81.5,132.5 C 105.167,132.5 128.833,132.5 152.5,132.5C 152.5,183.167 152.5,233.833 152.5,284.5C 129.164,284.667 105.831,284.5 82.5,284C 78.7251,282.558 75.8917,280.058 74,276.5C 72.3492,232.226 72.0158,187.892 73,143.5C 74.4157,138.636 77.249,134.97 81.5,132.5 Z M 449.5,163.5 C 472.124,169.635 484.457,184.468 486.5,208C 484.93,231.996 472.597,247.163 449.5,253.5C 449.5,223.5 449.5,193.5 449.5,163.5 Z M 28.5,166.5 C 34.5,166.5 40.5,166.5 46.5,166.5C 46.5,194.5 46.5,222.5 46.5,250.5C 40.8236,250.666 35.1569,250.499 29.5,250C 26.8981,249.065 25.3981,247.232 25,244.5C 24.3333,220.167 24.3333,195.833 25,171.5C 25.9973,169.677 27.1639,168.01 28.5,166.5 Z M 99.5,310.5 C 118.5,310.5 137.5,310.5 156.5,310.5C 173.833,359.167 191.167,407.833 208.5,456.5C 189.488,456.833 170.488,456.5 151.5,455.5C 133.762,407.284 116.428,358.95 99.5,310.5 Z"/></g>
</svg>
