<svg xmlns="http://www.w3.org/2000/svg" version="1.1" width="512px" height="512px" style="shape-rendering:geometricPrecision; text-rendering:geometricPrecision; image-rendering:optimizeQuality; fill-rule:evenodd; clip-rule:evenodd" xmlns:xlink="http://www.w3.org/1999/xlink">
<g><path style="opacity:0.988" fill="#000000" d="M 244.5,-0.5 C 251.833,-0.5 259.167,-0.5 266.5,-0.5C 299.318,8.00668 316.984,29.34 319.5,63.5C 310.887,167.521 302.054,271.521 293,375.5C 285.373,401.736 268.206,411.569 241.5,405C 228.452,399.289 220.619,389.456 218,375.5C 208.946,271.521 200.113,167.521 191.5,63.5C 194.016,29.34 211.682,8.00668 244.5,-0.5 Z"/></g>
<g><path style="opacity:0.971" fill="#000000" d="M 264.5,511.5 C 258.5,511.5 252.5,511.5 246.5,511.5C 219.232,501.633 209.399,482.633 217,454.5C 228.938,431.964 247.104,424.464 271.5,432C 294.029,443.914 301.529,462.08 294,486.5C 287.911,499.435 278.078,507.768 264.5,511.5 Z"/></g>
</svg>
